# xmcd
#
# Track frame offsets: 
#        182
#        11673
#        23608
#        36799
#        48895
#        62441
#        72149
#        86411
#        99137
#        109991
#        120669
#        130978
#        142491
#        155269
#        168352
#        181023
#        192611
#        204601
#        217007
#        229743
#        242516
#        252967
#        265213
#        277217
#
# Disc length: 3854 seconds
#
# Revision: 0
# Processed by: cddbd v1.5.2PL0 Copyright (c) Steve Scherf et al.
# Submitted via: ExactAudioCopy v0.99pb4
#
DISCID=550f0c18
DTITLE=Lightnin' Hopkins - 1946-1948
DYEAR=2001
DGENRE=
TTITLE0=Can't Do Like You Used To
TTITLE1=West Coast Blues
TTITLE2=L.A. Blues
TTITLE3=Little Mama Boogie (Big Mama Jump)
TTITLE4=Katie Mae Blues
TTITLE5=Feel So Bad
TTITLE6=That Mean Old Twister (Blues)
TTITLE7=Rocky Mountain Blues (I Can't Stay Here In Your Town)
TTITLE8=Short Haired Woman
TTITLE9=Big Mama Jump (Little Mama Blues)
TTITLE10=Down Baby
TTITLE11=Let Me Play With Your Poodle
TTITLE12=Fast Mail Rambler
TTITLE13=Thinkin' And Worryin'
TTITLE14=Short Haired Woman
TTITLE15=Big Mama Jump
TTITLE16=Can't Get That Woman Off My Mind
TTITLE17=Woman Woman (Change Your Way)
TTITLE18=Picture On The Wall
TTITLE19=You Are Not Going To Worry My Life Anymore
TTITLE20=Miss Me Blues (You're Gonna Miss Me)
TTITLE21=Sugar Mama (Sugar On My Mind)
TTITLE22=Nightmare Blues
TTITLE23=Someday Baby
EXTD=
EXTT0=
EXTT1=
EXTT2=
EXTT3=
EXTT4=
EXTT5=
EXTT6=
EXTT7=
EXTT8=
EXTT9=
EXTT10=
EXTT11=
EXTT12=
EXTT13=
EXTT14=
EXTT15=
EXTT16=
EXTT17=
EXTT18=
EXTT19=
EXTT20=
EXTT21=
EXTT22=
EXTT23=
PLAYORDER=
